<svg height="512" viewBox="0 0 40 61" width="512" xmlns="http://www.w3.org/2000/svg"><g id="Page-1" fill="none" fill-rule="evenodd"><g id="008---Medal" fill="rgb(0,0,0)" fill-rule="nonzero"><path id="Shape" d="m8.278 26.077c-6.37754042 4.9994723-8.88231364 13.4936302-6.23779667 21.1535438 2.64451697 7.6599135 9.85623297 12.79954 17.95979667 12.79954s15.3152797-5.1396265 17.9597967-12.79954c2.6445169-7.6599136.1397437-16.1540715-6.2377967-21.1535438l7.5-12.5c.5880415-.9733657.5721448-2.1962489-.041-3.154l-6.337-9.96c-.191102-.28042484-.5048124-.45251952-.844-.463h-24c-.33753564.01157455-.6492629.18360044-.839.463l-6.337 9.958c-.61314483.9577511-.62904153 2.1806343-.041 3.154zm28.722 14.923c0 9.3888407-7.6111593 17-17 17s-17-7.6111593-17-17 7.6111593-17 17-17c9.3845001.010471 16.989529 7.6154999 17 17zm-12.911-29h-7.746l-6.5-10h20.372zm-1.225 2-2.534 4.135-2.687-4.135zm14.643-1.455-7.426 12.379c-2.9311693-1.8498323-6.3153314-2.8563273-9.781-2.909l11.717-19.127 5.476 8.606c.203253.3194341.2086722.7262653.014 1.051zm-35-1.05 5.5-8.646 11.166 17.176-1.287 2.1c-2.8333091.3185317-5.557385 1.2759075-7.967 2.8l-7.426-12.379c-.19261588-.3235008-.18720501-.7277703.014-1.046z"/><path id="Shape" d="m20 54c-7.1762751-.008266-12.99173398-5.8237249-13-13 0-.5522847-.44771525-1-1-1s-1 .4477153-1 1c.00936852 8.2803876 6.7196124 14.9906315 15 15 .5522847 0 1-.4477153 1-1s-.4477153-1-1-1z"/><path id="Shape" d="m19 27c0 .5522847.4477153 1 1 1 7.1762751.008266 12.991734 5.8237249 13 13 0 .5522847.4477153 1 1 1s1-.4477153 1-1c-.0093685-8.2803876-6.7196124-14.9906315-15-15-.5522847 0-1 .4477153-1 1z"/><path id="Shape" d="m27.619 36.63-4.253-.648-1.9-4.046c-.263911-.5706129-.8353124-.9358937-1.464-.9358937s-1.200089.3652808-1.464.9358937l-1.9 4.046-4.253.648c-.6066465.0909651-1.1098791.5167773-1.3 1.1-.1992341.589035-.0503962 1.2400556.385 1.684l3.11 3.181-.734 4.494c-.1063041.6241986.1559928 1.2538668.674 1.618.5017691.3549435 1.1625061.3910897 1.7.093l3.78-2.086 3.778 2.086c.5372108.2993188 1.1986463.2631344 1.7-.093.5180072-.3641332.7803041-.9938014.674-1.618l-.734-4.494 3.11-3.181c.4353962-.4439444.5842341-1.094965.385-1.684-.1891588-.5814998-.6896303-1.0069393-1.294-1.1zm-3.752 4.69c-.368735.3768354-.5358606.9068093-.45 1.427l.642 3.922-3.285-1.812c-.4819209-.2665954-1.0670791-.2665954-1.549 0l-3.284 1.811.641-3.92c.0869701-.5197244-.0790646-1.0497723-.447-1.427l-2.757-2.821 3.762-.573c.5341949-.083672.99164-.4278808 1.22-.918l1.64-3.486 1.64 3.487c.2286005.4907642.6869877.8351173 1.222.918l3.76.573z"/></g></g></svg>